<svg xmlns="http://www.w3.org/2000/svg" width="43" height="32" fill="none"><g fill-rule="evenodd" clip-path="url(#a)" clip-rule="evenodd"><path fill="#227FBB" d="M39.847 2.493H2.894a2.847 2.847 0 0 0-2.847 2.84v21.334a2.846 2.846 0 0 0 2.847 2.846h36.953a2.845 2.845 0 0 0 2.867-2.846V5.333a2.853 2.853 0 0 0-2.867-2.84z"/><path fill="#fff" d="m3.894 12.2-.82-2-.82 2h1.64zm18.087-.793a1.12 1.12 0 0 1-.594.1h-1.46v-1.114h1.454c.193-.017.388.015.566.094a.446.446 0 0 1 .254.44.527.527 0 0 1-.247.48h.027zm10.393.793-.827-2-.833 2h1.66zm-19.373 2.167h-1.234v-3.934l-1.72 3.934H8.974l-1.747-3.934v3.934h-2.44l-.46-1.12h-2.5l-.446 1.12H.047l2.16-5.034h1.787L6.047 14.1V9.333h1.954l1.573 3.407 1.427-3.407h2v5.034zm4.9 0h-4V9.333h4v1.047h-2.807v.953h2.74v1.027h-2.74v.973h2.807v1.04-.006zm5.646-3.667a1.427 1.427 0 0 1-.84 1.333 1.4 1.4 0 0 1 .594.42c.164.277.232.6.193.92v.987h-1.207v-.627a1.507 1.507 0 0 0-.186-.98 1.2 1.2 0 0 0-.874-.213h-1.3v1.827h-1.213V9.333h2.753c.497-.047.998.035 1.454.24a1.174 1.174 0 0 1 .606 1.114l.02.013zm1.92 3.667h-1.22V9.333h1.22v5.034zm14.2 0h-1.7L35.694 10.6v3.767h-2.44l-.467-1.12h-2.493l-.453 1.12h-1.407a2.5 2.5 0 0 1-1.733-.554 2.522 2.522 0 0 1-.667-1.92 2.668 2.668 0 0 1 .667-1.96 2.46 2.46 0 0 1 1.826-.6h1.16v1.074h-1.14a1.153 1.153 0 0 0-.92.3 1.66 1.66 0 0 0-.346 1.14c-.037.418.082.836.333 1.173a1.139 1.139 0 0 0 .833.26h.54l1.687-3.947h1.8l2 4.747V9.333h1.827l2.106 3.5v-3.5h1.227v5.02l.033.014zm-39.62.966h2.047l.467-1.113h1.033l.453 1.113h4.034V14.5l.366.833h2.094l.36-.866v.866h10V13.52h.193c.133 0 .173 0 .173.247v1.566h5.18v-.426c.598.297 1.26.443 1.927.426h2.18l.467-1.113h1.026l.487 1.113h4.18v-1.04l.667 1.04h3.333v-6.98h-3.333v.827l-.467-.827h-3.393v.827l-.434-.827h-4.613a4.187 4.187 0 0 0-2 .407v-.407h-3.193v.407a2 2 0 0 0-1.334-.407H10.281L9.5 10.16l-.787-1.807h-3.68v.827l-.407-.827H1.501L.047 11.68v3.653zm42.667 3.694h-2.187a.86.86 0 0 0-.486.093.388.388 0 0 0-.174.36.38.38 0 0 0 .26.373c.151.048.31.068.467.06h.667c.48-.037.956.109 1.333.407a.5.5 0 0 1 .113.127l.007-1.42zm0 3.333a1.865 1.865 0 0 1-1.627.667h-2.32v-1.1h2.307a.667.667 0 0 0 .487-.127.44.44 0 0 0 .146-.327.428.428 0 0 0-.146-.333.667.667 0 0 0-.427-.113c-1.127-.034-2.533.04-2.533-1.554 0-.726.466-1.493 1.726-1.493h2.387v-1h-2.22a2.467 2.467 0 0 0-1.5.413v-.413h-3.287a2.287 2.287 0 0 0-1.433.413v-.413h-5.86v.413a3.093 3.093 0 0 0-1.62-.413h-3.867v.413a2.727 2.727 0 0 0-1.693-.413h-4.327l-.986 1.073-.934-1.073H8.521V24h6.346l1.02-1.087.96 1.087h3.914v-1.66h.386a3.999 3.999 0 0 0 1.667-.247V24h3.233v-1.84h.16c.194 0 .214 0 .214.207V24h9.8a2.82 2.82 0 0 0 1.633-.447V24h3.107c.601.014 1.199-.1 1.753-.333v-1.334.027zm-4.787-2a1.394 1.394 0 0 1 .36 1.06c0 1.08-.666 1.587-1.886 1.587h-2.354v-1.08h2.327a.726.726 0 0 0 .493-.127.46.46 0 0 0 .102-.509.446.446 0 0 0-.108-.151.667.667 0 0 0-.427-.113c-1.127-.034-2.527.04-2.527-1.554 0-.726.454-1.493 1.714-1.493h2.426v1.067h-2.2a.82.82 0 0 0-.48.093.38.38 0 0 0-.18.36.373.373 0 0 0 .26.373c.151.048.31.068.467.06h.667c.479-.033.954.112 1.333.407l.013.02zm-10.82-.313c-.184.09-.39.126-.593.106h-1.46V19.02h1.48c.195-.019.392.01.573.087a.493.493 0 0 1 .247.453.54.54 0 0 1-.247.48v.007zm.72.626c.233.083.439.228.594.42.16.273.229.592.193.907v1h-1.2v-.627a1.53 1.53 0 0 0-.193-.986 1.207 1.207 0 0 0-.88-.22h-1.287V23h-1.207v-5h2.774a2.92 2.92 0 0 1 1.44.24 1.174 1.174 0 0 1 .653 1.093 1.4 1.4 0 0 1-.853 1.334l-.034.006zM29.381 18h4v1.04h-2.84v.893h2.74v1.02h-2.74v1h2.84V23h-4v-5zm-8.127 2.3h-1.553v-1.28h1.566c.434 0 .734.173.734.613s-.287.667-.747.667zm-2.747 2.247-1.84-2.047 1.84-2v4.047zm-4.753-.594h-2.953v-1h2.633v-1.02h-2.633v-.913h3.006l1.334 1.46-1.367 1.473h-.02zm9.533-2.32c0 1.394-1.04 1.687-2.086 1.687h-1.5V23h-2.32l-1.487-1.667-1.533 1.66H9.607V18h4.827l1.473 1.647L17.434 18h3.833c.954 0 2 .267 2 1.653l.02-.02z"/></g><defs><clipPath id="a"><path fill="#fff" d="M.047 0h42.667v32H.047z"/></clipPath></defs></svg>