<svg xmlns="http://www.w3.org/2000/svg" width="77" height="32" fill="none"><path fill="#000" d="M10.3 5.933c1.44.121 2.88-.73 3.782-1.815v-.003C14.968 3.008 15.554 1.51 15.41 0c-1.283.06-2.854.851-3.754 1.962-.832.947-1.539 2.508-1.357 3.97zM6.735 25.747c1.593-.06 2.22-1.046 4.14-1.046 1.933 0 2.496 1.046 4.177 1.024 1.74-.036 2.832-1.581 3.897-3.168 1.21-1.802 1.715-3.546 1.74-3.642-.034-.035-3.36-1.328-3.398-5.225-.035-3.264 2.63-4.813 2.746-4.91-1.5-2.265-3.84-2.508-4.656-2.569l.006.003c-2.09-.124-3.875 1.204-4.86 1.204-1.008 0-2.519-1.146-4.176-1.11-2.144.038-4.138 1.27-5.229 3.228-2.256 3.933-.589 9.744 1.594 12.947 1.068 1.581 2.339 3.325 4.019 3.264zm38.912-12.349h3.276c.276-1.462 1.607-2.425 3.434-2.425 2.22 0 3.469 1.046 3.469 2.982v1.315l-4.535.282c-4.21.256-6.492 2.01-6.492 5.053.013 3.069 2.361 5.113 5.734 5.116 2.282 0 4.394-1.167 5.35-3.03h.07v2.851h3.36V13.728c0-3.42-2.7-5.638-6.85-5.638-3.853 0-6.704 2.236-6.816 5.308zm10.192 5.716c0 2.217-1.863 3.798-4.32 3.798-1.933 0-3.168-.95-3.168-2.387 0-1.501 1.187-2.362 3.456-2.496l4.032-.256v1.34zM27.432 1.802v23.737h3.636v-8.112h5.027c4.595 0 7.81-3.203 7.81-7.83 0-4.627-3.164-7.795-7.692-7.795h-8.78zM40.213 9.61c0 2.995-1.798 4.726-4.97 4.726h-4.176V4.909h4.19c3.154 0 4.956 1.702 4.956 4.7zm28.6 12.726L64.54 8.32h-3.792l6.144 17.283-.336 1.047c-.554 1.776-1.453 2.473-3.06 2.473-.287 0-.838-.035-1.068-.06v2.85c.218.052 1.12.087 1.395.087l-.003-.006c3.54 0 5.206-1.376 6.662-5.53L76.854 8.32H73.16l-4.273 14.016h-.073z"/></svg>