<svg xmlns="http://www.w3.org/2000/svg" fill="#ffffff" xmlns:xlink="http://www.w3.org/1999/xlink" version="1.1" x="0px" y="0px" viewBox="0 0 100 125" style="enable-background:new 0 0 100 100;" xml:space="preserve"><path d="M77.235054,44.5641823c-1.6144562,4.2257309-4.502533,6.9564972-7.357338,6.9564972  c-0.5578995,0-1.1200867-0.1037407-1.6798172-0.3081322c1.3176117-2.7030373,2.0821762-5.807354,2.0821762-8.7271957  c0-4.9968452-2.162468-9.0921745-5.7244797-11.2279816c1.4517288-1.2709694,3.2996368-1.9584522,5.3221207-1.9584522  c0.1593323,0,0.319664,0.0090771,0.5011826,0.0191612l0.0897446-2.0632019  c-3.0367508-0.1701679-5.8712616,0.9303188-7.916748,3.0641708c-0.4266853-0.1497478-0.8671684-0.2759247-1.3212662-0.3762627  l-0.4457169,2.0168152c4.5136261,0.9973125,7.4299393,5.1292629,7.4299393,10.5257511  c0,6.4124603-4.2322807,14.1575279-9.4891052,14.1575279c-0.4221458,0-0.8439751-0.0518074-1.2622108-0.1537819  c1.7068558-3.1442108,2.7133064-6.8936577,2.7133064-10.3997002c0-8.1086006-5.3022041-13.9941673-12.6071014-13.9941673  S34.962635,37.9807968,34.962635,46.0893974c0,5.2179375,2.2290192,10.9749336,5.6789703,14.4734116l-0.4352531,4.1604347  l-6.1280899,0.9146271c-4.96842,0.7507553-8.8517952,4.7551422-9.4427223,9.7397003l-1.6517715,14.0743332l2.0510998,0.2410126  l1.6517715-14.0733337c0.4820175-4.0623627,3.6484165-7.3275833,7.6981792-7.9391861l6.9176712-1.032608l0.8742905-0.9141235  l0.3724785-3.5637054c1.5292473,1.04496,3.2237511,1.6558037,5.0204811,1.6558037  c1.7912445,0,3.4810181-0.6070633,5.0066147-1.646286l0.3722267,3.5541878l0.8742905,0.9141235l6.9378395,1.0321045  c4.0306015,0.6105881,7.1879272,3.8763199,7.678009,7.9386826l1.6527786,14.0743408l2.0511017-0.2410126l-1.6527786-14.0773621  c-0.6010132-4.9840469-4.4753113-8.9879303-9.4225578-9.737175l-6.1482544-0.9146271l-0.4348145-4.1460648  c0.6685753-0.6762009,1.2913933-1.4369774,1.8612061-2.2624855c0.7799377,0.2614899,1.577652,0.3939095,2.3803444,0.3939095  c1.5972519,0,3.1063957-0.5256958,4.474617-1.4295425l0.3223724,3.0752602l0.8742905,0.9141235l6.3075867,0.9393311  c3.6262283,0.548069,6.4648972,3.4865685,6.9045639,7.1440544l1.5075684,12.793663l2.0510941-0.2420197l-1.5075684-12.7956772  c-0.5505905-4.5786667-4.1062317-8.2553215-8.6491013-8.9425507l-5.5180054-0.8218498l-0.3836365-3.6537743  c0.7619781-0.7766647,1.4583435-1.6735153,2.0762482-2.6542549c0.8836823,0.3659897,1.7855759,0.551033,2.6919403,0.551033  c1.3664551,0,2.704483-0.4160957,3.9482956-1.1890373l0.2708817,2.5871925l0.8763046,0.9141197l5.672287,0.8354683  c3.2258987,0.4971428,5.7438889,3.1038742,6.1220398,6.3398514l1.3633652,11.523571l2.0511017-0.2430267l-1.3633652-11.5220566  c-0.4860535-4.1541328-3.7169876-7.5010338-7.8655777-8.1403656l-4.8857269-0.7194977l-0.3275452-3.1222801  c1.3767929-1.3968315,2.559021-3.2820473,3.4253693-5.5485077L77.235054,44.5641823z M37.0278511,46.0893974  c0-6.9121246,4.4339676-11.9289474,10.5418892-11.9289474s10.5418854,5.0168228,10.5418854,11.9289474  c0,7.098175-4.7022018,15.6711502-10.5418854,15.6711502S37.0278511,53.1875725,37.0278511,46.0893974z"/><rect x="32.701786" y="82.3486862" width="2.0652175" height="7.226244"/><rect x="60.3583565" y="82.3486862" width="2.0652175" height="7.226244"/><path d="M18.4913158,53.391777c0.9005089,0,1.8020229-0.0605049,2.6894226-0.1805038  c2.7438755,2.5527802,5.739851,4.1349716,9.1432247,4.8307724l0.9610119-1.7168121  c-2.0339565-2.1736221-2.9354725-4.0679131-2.7438755-5.7746429c3.7835426-2.4448814,5.942543-6.0605278,5.942543-9.9837341  c0-7.0714531-7.1738071-12.8244133-15.9923267-12.8244133c-8.8175097,0-15.9913168,5.7529602-15.9913168,12.8244133  S9.6738062,53.391777,18.4913158,53.391777z M18.4913158,29.8076591c7.6790199,0,13.9271107,4.8267403,13.9271107,10.7591972  c0,3.322197-1.9512691,6.4104424-5.3546429,8.4716263l-0.4729424,0.6625252  c-0.3791618,1.7314339-0.0080681,3.5107689,1.1304245,5.3869095c-1.9573193-0.8248787-3.7664013-2.0541267-5.4756508-3.7129555  l-0.8843727-0.2783203c-0.9408436,0.1527748-1.9058895,0.2299194-2.8699265,0.2299194  c-7.679018,0-13.9260998-4.8267403-13.9260998-10.7597046C4.5652165,34.6343994,10.8122978,29.8076591,18.4913158,29.8076591z"/><path d="M26.4315128,44.0120811c1.5892487,0,2.8820267-1.292778,2.8820267-2.8815231s-1.292778-2.8815231-2.8820267-2.8815231  c-1.5882416,0-2.8810196,1.292778-2.8810196,2.8815231S24.8432713,44.0120811,26.4315128,44.0120811z M26.4315128,40.3142509  c0.450758,0,0.8168087,0.3660507,0.8168087,0.8163071c0,0.4502525-0.3660507,0.8163033-0.8168087,0.8163033  c-0.449749,0-0.8158016-0.3660507-0.8158016-0.8163033C25.6157112,40.6803017,25.9817638,40.3142509,26.4315128,40.3142509z"/><path d="M18.4913158,44.0120811c1.5892506,0,2.8820267-1.292778,2.8820267-2.8815231s-1.2927761-2.8815231-2.8820267-2.8815231  c-1.5882397,0-2.8810177,1.292778-2.8810177,2.8815231S16.9030762,44.0120811,18.4913158,44.0120811z M18.4913158,40.3142509  c0.450758,0,0.8168106,0.3660507,0.8168106,0.8163071c0,0.4502525-0.3660526,0.8163033-0.8168106,0.8163033  c-0.449749,0-0.8158016-0.3660507-0.8158016-0.8163033C17.6755142,40.6803017,18.0415668,40.3142509,18.4913158,40.3142509z"/><path d="M10.5511198,44.0120811c1.5892496,0,2.8820276-1.292778,2.8820276-2.8815231s-1.292778-2.8815231-2.8820276-2.8815231  c-1.5882406,0-2.8810186,1.292778-2.8810186,2.8815231S8.9628792,44.0120811,10.5511198,44.0120811z M10.5511198,40.3142509  c0.450758,0,0.8168097,0.3660507,0.8168097,0.8163071c0,0.4502525-0.3660517,0.8163033-0.8168097,0.8163033  c-0.449749,0-0.8158007-0.3660507-0.8158007-0.8163033C9.7353191,40.6803017,10.1013708,40.3142509,10.5511198,40.3142509z"/><path d="M85.5039902,19.3091354c-6.6141357,0-11.9960098,4.3401833-11.9960098,9.6751595  c0,2.9319439,1.5852203,5.6324577,4.3684235,7.4743118c0.0715942,1.1354675-0.5697556,2.4116058-1.950264,3.8858986  l0.9610138,1.7173157c2.506897-0.5127754,4.7163239-1.6658897,6.7381744-3.5203476  c0.6181564,0.0781517,1.2484131,0.1174774,1.8786621,0.1174774c6.6141434,0,11.9960098-4.3401833,11.9960098-9.6746559  C97.5,23.6493187,92.1181335,19.3091354,85.5039902,19.3091354z M85.5039902,36.5937347  c-0.6947937,0-1.3875656-0.0554619-2.059166-0.1643715L82.5604553,36.70718  c-1.0063934,0.9771461-2.0611877,1.7465591-3.1825333,2.3178215c0.5515976-1.1682396,0.7018509-2.2966461,0.4598312-3.4048843  l-0.4729462-0.6630287c-2.4100876-1.4591637-3.7916031-3.6363144-3.7916031-5.9727936  c0-4.1959801,4.4551392-7.6099415,9.9307861-7.6099415c5.4756546,0,9.9307938,3.4139614,9.9307938,7.6099415  S90.9796448,36.5937347,85.5039902,36.5937347z"/><path d="M60.1929779,19.9817429c0-5.3344727-5.3818665-9.6746569-11.9960098-9.6746569s-11.9960098,4.3401842-11.9960098,9.6746569  c0,5.3349762,5.3818703,9.6751595,11.9960098,9.6751595c0.6292458,0,1.2584915-0.0393276,1.8786621-0.1174793  c2.0228653,1.8539562,4.2312775,3.0075741,6.7381744,3.5203495l0.9610138-1.716814  c-1.3805084-1.4758034-2.0218582-2.7519417-1.9492531-3.8858948C58.6077614,25.6147041,60.1929779,22.9136848,60.1929779,19.9817429  z M54.3371582,25.9550419l-0.4729424,0.6625233c-0.2430267,1.1082382-0.0927734,2.2361412,0.4598351,3.4058933  c-1.1213493-0.5717659-2.1761436-1.3411808-3.1835442-2.318327l-0.8843727-0.2783203  c-0.6736145,0.1094112-1.3663902,0.164875-2.059166,0.164875c-5.4756508,0-9.9307899-3.4139633-9.9307899-7.6099434  s4.4551392-7.6094389,9.9307899-7.6094389s9.9307938,3.4134569,9.9307938,7.6094389  C58.1277618,22.318222,56.7462425,24.4958763,54.3371582,25.9550419z"/></svg>