<svg xmlns="http://www.w3.org/2000/svg" width="53" height="32" fill="none"><g clip-path="url(#a)"><rect width="51.333" height="32" x=".714" fill="#fff" rx="2.635"/><path fill="#F58025" d="M51.436 18.136S38.025 27.712 13.461 32h37.975V18.136z"/><path fill="#231F20" d="M5.594 10.662H3.546v7.24h2.037c1.083 0 1.866-.26 2.552-.836a3.65 3.65 0 0 0 1.299-2.779c0-2.137-1.577-3.625-3.84-3.625zm1.63 5.438c-.439.401-1.008.576-1.91.576H4.94v-4.787h.374c.902 0 1.45.163 1.91.585a2.438 2.438 0 0 1 .773 1.802 2.51 2.51 0 0 1-.773 1.825zm4.247-5.438h-1.395v7.24h1.395v-7.24zm3.412 2.778c-.837-.313-1.083-.52-1.083-.911 0-.456.438-.803 1.04-.803a1.43 1.43 0 0 1 1.124.587l.73-.968a3.109 3.109 0 0 0-2.101-.803c-1.266 0-2.231.89-2.231 2.075 0 .997.45 1.508 1.76 1.985.333.107.656.245.964.412a.862.862 0 0 1 .418.75 1.043 1.043 0 0 1-.324.746 1.017 1.017 0 0 1-.759.275 1.636 1.636 0 0 1-.903-.255 1.665 1.665 0 0 1-.62-.71l-.901.878c.643.955 1.415 1.378 2.476 1.378 1.45 0 2.468-.976 2.468-2.377 0-1.15-.47-1.671-2.058-2.259zm2.497.847a3.787 3.787 0 0 0 1.1 2.696 3.7 3.7 0 0 0 1.23.815c.46.186.952.277 1.447.267.607 0 1.207-.144 1.749-.422V15.98c-.558.565-1.052.792-1.684.792-1.406 0-2.403-1.03-2.403-2.497a2.433 2.433 0 0 1 .654-1.739 2.378 2.378 0 0 1 1.684-.747c.665 0 1.169.24 1.749.815v-1.662a3.53 3.53 0 0 0-1.716-.444 3.72 3.72 0 0 0-1.45.274 3.76 3.76 0 0 0-1.234.817 3.846 3.846 0 0 0-1.125 2.697zm16.589 1.238-1.908-4.863h-1.524l3.036 7.425h.75l3.09-7.425h-1.511l-1.933 4.863zm4.076 2.376h3.957v-1.225h-2.563v-1.954h2.468v-1.226H39.44v-1.607h2.563v-1.227h-3.957v7.24zm9.482-5.101c0-1.356-.923-2.138-2.532-2.138h-2.069v7.24h1.394v-2.909h.182l1.931 2.909h1.716l-2.252-3.05c1.051-.217 1.63-.944 1.63-2.053zm-2.8 1.195h-.407v-2.193h.43c.868 0 1.34.369 1.34 1.074 0 .727-.472 1.12-1.363 1.12z"/><path fill="#F58025" d="M30.956 14.287c0 .76-.223 1.505-.641 2.138a3.814 3.814 0 0 1-1.707 1.418 3.762 3.762 0 0 1-2.198.219 3.79 3.79 0 0 1-1.947-1.054 3.863 3.863 0 0 1-1.04-1.97 3.893 3.893 0 0 1 .216-2.225 3.84 3.84 0 0 1 1.4-1.727 3.771 3.771 0 0 1 4.803.478 3.89 3.89 0 0 1 1.114 2.722z"/><path fill="#231F20" d="M48.272 10.806c0-.127-.087-.196-.239-.196h-.202v.636h.15v-.247l.177.247h.183l-.207-.263a.173.173 0 0 0 .138-.177zm-.265.087h-.025v-.167h.027c.074 0 .112.027.112.082 0 .056-.039.085-.114.085z"/><path fill="#231F20" d="M48.064 10.372a.544.544 0 0 0-.512.337.561.561 0 0 0 .114.607.546.546 0 0 0 .938-.39.555.555 0 0 0-.157-.39.542.542 0 0 0-.383-.164zm-.003 1.01a.447.447 0 0 1-.427-.27.46.46 0 0 1 .318-.63.446.446 0 0 1 .467.19.46.46 0 0 1 .076.255.451.451 0 0 1-.124.318.44.44 0 0 1-.31.137z"/></g><defs><clipPath id="a"><rect width="51.333" height="32" x=".714" fill="#fff" rx="2.635"/></clipPath></defs></svg>