<svg xmlns="http://www.w3.org/2000/svg" width="82" height="32" fill="none"><g clip-path="url(#a)"><path fill="#5F6368" d="M38.96 15.559V24.9H36V1.84h7.852a7.139 7.139 0 0 1 5.094 2.005A6.357 6.357 0 0 1 51.061 8.7a6.434 6.434 0 0 1-2.115 4.892c-1.379 1.306-3.071 1.968-5.076 1.968h-4.91zm0-10.888v8.055h4.966a3.871 3.871 0 0 0 2.924-1.195c1.563-1.508 1.581-3.99.073-5.554l-.073-.074a3.822 3.822 0 0 0-2.924-1.213l-4.966-.02zm18.924 3.936c2.189 0 3.917.588 5.186 1.747 1.27 1.177 1.895 2.777 1.895 4.818v9.71h-2.833v-2.188h-.128c-1.232 1.803-2.85 2.704-4.892 2.704-1.729 0-3.2-.515-4.359-1.545a4.877 4.877 0 0 1-1.747-3.862c0-1.637.625-2.924 1.858-3.9 1.232-.974 2.887-1.452 4.947-1.452 1.765 0 3.2.331 4.34.956v-.68a3.392 3.392 0 0 0-1.214-2.612 4.303 4.303 0 0 0-2.85-1.085c-1.656 0-2.961.7-3.936 2.097l-2.612-1.637c1.416-2.041 3.531-3.071 6.345-3.071zM54.06 20.064c0 .773.368 1.49.975 1.931.662.515 1.47.791 2.299.773 1.25 0 2.446-.497 3.328-1.38.975-.92 1.471-2.004 1.471-3.255-.92-.735-2.206-1.103-3.862-1.103-1.195 0-2.207.294-3.016.864-.79.589-1.195 1.306-1.195 2.17zM81.222 9.122l-9.894 22.73h-3.053l3.678-7.944-6.51-14.768h3.218l4.69 11.329h.073l4.58-11.329 3.218-.018z"/><path fill="#4285F4" d="M26.988 13.536c0-.902-.074-1.803-.221-2.685H14.28v5.094h7.154a6.132 6.132 0 0 1-2.649 4.027v3.31h4.267c2.501-2.298 3.936-5.7 3.936-9.746z"/><path fill="#34A853" d="M14.28 26.483c3.567 0 6.583-1.177 8.772-3.2l-4.267-3.31c-1.195.809-2.721 1.268-4.505 1.268-3.458 0-6.382-2.335-7.43-5.462H2.454V19.2a13.26 13.26 0 0 0 11.826 7.283z"/><path fill="#FBBC04" d="M6.85 15.78a7.99 7.99 0 0 1 0-5.077V7.301H2.454a13.13 13.13 0 0 0 0 11.88L6.85 15.78z"/><path fill="#EA4335" d="M14.28 5.241a7.126 7.126 0 0 1 5.075 1.987l3.77-3.77A12.64 12.64 0 0 0 14.28 0 13.244 13.244 0 0 0 2.454 7.3l4.396 3.42c1.048-3.144 3.972-5.48 7.43-5.48z"/></g><defs><clipPath id="a"><path fill="#fff" d="M.854 0h80.368v32H.854z"/></clipPath></defs></svg>