<svg xmlns="http://www.w3.org/2000/svg" fill="#ffffff" xmlns:xlink="http://www.w3.org/1999/xlink" version="1.1" x="0px" y="0px" viewBox="0 0 130 162.5" style="enable-background:new 0 0 130 130;" xml:space="preserve"><g><path d="M108.6225586,1.4501953c-11.7924805,0-21.3862305,9.5898438-21.3862305,21.3769531   c0,10.0349121,15.18396,32.8929443,19.4759521,39.1533203H83.7617188c-4.6767578,0-8.4814453,3.8046875-8.4814453,8.4814453   s3.8046875,8.4814453,8.4814453,8.4814453h13.8515625c3.6762695,0,6.6669922,2.9912109,6.6669922,6.6669922   s-2.9907227,6.6660156-6.6669922,6.6660156H64.1933594c-5.1923828,0-9.4169922,4.2246094-9.4169922,9.4169922   s4.2246094,9.4169922,9.4169922,9.4169922h48.5336914c4.2568359,0,7.7197266,3.4628906,7.7197266,7.7197266   s-3.4628906,7.7197266-7.7197266,7.7197266h-89.430542c4.2901611-6.2602539,19.4676514-29.1174316,19.4676514-39.1523438   c0-11.7880859-9.5898438-21.3779297-21.3774414-21.3779297C9.5942383,66.0195313,0,75.609375,0,87.3974609   c0,11.4375,19.7294922,39.5380859,20.5693359,40.7285156c0.0251465,0.0356445,0.0571899,0.0639648,0.0863037,0.095459   c0.0153809,0.0168457,0.0284424,0.0339355,0.0448608,0.0496826c0.0809326,0.0770264,0.1727295,0.1383057,0.2734375,0.1842041   c0.020874,0.0095215,0.0420532,0.0158691,0.0637207,0.0240479c0.1109619,0.041748,0.2272339,0.0704346,0.3490601,0.0704346   h91.340332c5.359375,0,9.7197266-4.3603516,9.7197266-9.7197266s-4.3603516-9.7197266-9.7197266-9.7197266H64.1933594   c-4.0898438,0-7.4169922-3.3271484-7.4169922-7.4169922s3.3271484-7.4169922,7.4169922-7.4169922h33.4199219   c4.7788086,0,8.6669922-3.8876953,8.6669922-8.6660156c0-4.7792969-3.8881836-8.6669922-8.6669922-8.6669922H83.7617188   c-3.5737305,0-6.4814453-2.9072266-6.4814453-6.4814453s2.9077148-6.4814453,6.4814453-6.4814453h24.8608398   c0.1218262,0,0.2380981-0.0286865,0.3490601-0.0704346c0.0216675-0.0081787,0.0428467-0.0145264,0.0637207-0.0240479   c0.100708-0.0458984,0.1925049-0.1071777,0.2734375-0.1842041c0.0164185-0.0157471,0.02948-0.0328369,0.0448608-0.0496826   c0.0291138-0.0314941,0.0611572-0.0598145,0.0863037-0.095459C110.2792969,62.3662109,130,34.2646484,130,22.8271484   C130,11.0400391,120.4101563,1.4501953,108.6225586,1.4501953z M21.3867188,68.0195313   c10.6845703,0,19.3774414,8.6933594,19.3774414,19.3779297c0,9.5458984-15.5961914,32.8789063-19.3774414,38.3955078   C17.6035156,120.2763672,2,96.9433594,2,87.3974609C2,76.7128906,10.6967773,68.0195313,21.3867188,68.0195313z    M108.6225586,61.2236328C104.8393555,55.7070313,89.2363281,32.375,89.2363281,22.8271484   c0-10.6845703,8.6967773-19.3769531,19.3862305-19.3769531C119.3071289,3.4501953,128,12.1425781,128,22.8271484   C128,32.3730469,112.4038086,55.7070313,108.6225586,61.2236328z"/><path d="M108.6142578,11.1054688c-6.6972656,0-12.1459961,5.4482422-12.1459961,12.1455078   c0,6.7011719,5.4487305,12.1533203,12.1459961,12.1533203c6.7016602,0,12.1538086-5.4521484,12.1538086-12.1533203   C120.7680664,16.5537109,115.315918,11.1054688,108.6142578,11.1054688z M108.6142578,33.4042969   c-5.5947266,0-10.1459961-4.5546875-10.1459961-10.1533203c0-5.5947266,4.5512695-10.1455078,10.1459961-10.1455078   c5.5986328,0,10.1538086,4.5507813,10.1538086,10.1455078C118.7680664,28.8496094,114.2128906,33.4042969,108.6142578,33.4042969z"/><path d="M33.5317383,87.8203125c0-6.6972656-5.4521484-12.1455078-12.1533203-12.1455078   c-6.6972656,0-12.1459961,5.4482422-12.1459961,12.1455078c0,6.7021484,5.4487305,12.1542969,12.1459961,12.1542969   C28.0795898,99.9746094,33.5317383,94.5224609,33.5317383,87.8203125z M21.378418,97.9746094   c-5.5947266,0-10.1459961-4.5556641-10.1459961-10.1542969c0-5.5947266,4.5512695-10.1455078,10.1459961-10.1455078   c5.5986328,0,10.1533203,4.5507813,10.1533203,10.1455078C31.5317383,93.4189453,26.9770508,97.9746094,21.378418,97.9746094z"/></g></svg>