<svg xmlns="http://www.w3.org/2000/svg" width="44" height="32" fill="none"><g clip-path="url(#a)"><path fill="#231F20" d="M41.467 31.56v.086h.114a.033.033 0 0 0 0-.033h-.04l-.074-.053zm.074-.054a.121.121 0 0 1 .093 0 .088.088 0 0 1 0 .074.073.073 0 0 1 0 .06.108.108 0 0 1-.074 0l.1.113h-.08l-.093-.113v.113h-.067v-.307l.12.06zm0 .414a.18.18 0 0 0 .1 0 .233.233 0 0 0 .086-.054.333.333 0 0 0 .054-.08.28.28 0 0 0 0-.206.333.333 0 0 0-.054-.08.253.253 0 0 0-.086-.06h-.2a.267.267 0 0 0-.14.347c.012.03.03.057.053.08a.253.253 0 0 0 .087.06.267.267 0 0 0 .1 0v-.007zm0-.594a.34.34 0 0 1 .24.1c.032.03.057.066.073.107a.293.293 0 0 1 0 .26.24.24 0 0 1-.073.107.307.307 0 0 1-.107.073.346.346 0 0 1-.267 0 .417.417 0 0 1-.113-.073.36.36 0 0 1-.067-.107.293.293 0 0 1 0-.26c.036-.08.1-.144.18-.18a.3.3 0 0 1 .134 0v-.027zm-31.487-1.173a1.02 1.02 0 1 1 .993 1.053 1.013 1.013 0 0 1-1.027-1.08l.034.027zm2.7-.027V28.44h-.733v.413a1.28 1.28 0 0 0-1.067-.5 1.773 1.773 0 1 0 0 3.547 1.294 1.294 0 0 0 1.066-.494v.407h.734v-1.687zm24.8 0a1.021 1.021 0 0 1 1.76-.64 1.02 1.02 0 0 1-.74 1.72 1.013 1.013 0 0 1-1.02-1.08zm2.733 0v-3.04h-.727v1.767a1.253 1.253 0 0 0-1.06-.5 1.773 1.773 0 1 0 0 3.547 1.267 1.267 0 0 0 1.06-.494v.407h.74l-.013-1.687zm-18.413-1.113a.833.833 0 0 1 .853.82H20.98a.867.867 0 0 1 .894-.82zm0-.667a1.774 1.774 0 0 0 .047 3.547c.502.018.994-.15 1.38-.473l-.36-.547a1.593 1.593 0 0 1-.98.353.933.933 0 0 1-1.007-.826h2.506v-.28a1.62 1.62 0 0 0-1.606-1.774h.02zm8.847 1.774a1.02 1.02 0 1 1 .614.999 1.015 1.015 0 0 1-.614-1zm2.726 0v-1.68h-.733v.413a1.267 1.267 0 0 0-1.067-.5 1.773 1.773 0 1 0 0 3.547 1.28 1.28 0 0 0 1.067-.494v.407h.733V30.12zm-6.873 0a1.708 1.708 0 0 0 1.806 1.78c.442.022.875-.123 1.214-.407l-.354-.593a1.473 1.473 0 0 1-.886.306 1.08 1.08 0 0 1 0-2.16c.32.004.63.11.887.3l.353-.593a1.78 1.78 0 0 0-1.213-.4 1.707 1.707 0 0 0-1.8 1.773l-.007-.006zm9.466-1.767a.993.993 0 0 0-.886.493v-.406h-.7v3.373h.733V29.92c0-.554.24-.867.72-.867.158 0 .314.029.46.087l.22-.667a1.477 1.477 0 0 0-.52-.093l-.026-.027zm-19.66.353a2.52 2.52 0 0 0-1.333-.353c-.853 0-1.407.413-1.407 1.08 0 .553.407.893 1.167 1l.347.047c.4.053.593.16.593.353 0 .193-.273.407-.773.407a1.774 1.774 0 0 1-1.12-.354l-.347.574c.427.3.939.455 1.46.44.973 0 1.54-.46 1.54-1.1 0-.64-.447-.907-1.18-1.014l-.347-.046c-.313-.04-.566-.107-.566-.334 0-.226.24-.393.667-.393.37.005.732.104 1.053.287l.313-.594h-.066zm9.474-.353a1.006 1.006 0 0 0-.893.493v-.406h-.714v3.373h.733V29.92c0-.554.24-.867.72-.867a1.2 1.2 0 0 1 .46.087l.227-.667a1.478 1.478 0 0 0-.52-.093l-.013-.027zm-6.253.113h-1.22v-1.053h-.72v1.027h-.667v.666h.666v1.56c0 .787.307 1.254 1.174 1.254.325 0 .643-.09.92-.26l-.213-.667a1.38 1.38 0 0 1-.667.193c-.367 0-.487-.226-.487-.566v-1.507h1.2l.014-.647zM8.627 31.813V29.7a1.26 1.26 0 0 0-1.333-1.334 1.334 1.334 0 0 0-1.187.6 1.24 1.24 0 0 0-1.113-.6 1.114 1.114 0 0 0-.987.5v-.413h-.726v3.373h.74V29.94a.787.787 0 0 1 .826-.894c.487 0 .734.32.734.887v1.88h.74V29.94a.794.794 0 0 1 .826-.894c.5 0 .74.314.74.887v1.88h.74z"/><path fill="#F79410" d="M41.88 20.587v-.494h-.126l-.147.34-.146-.34h-.134v.494h.094v-.367l.14.32h.093l.14-.327v.373h.087zm-.813 0v-.407h.167v-.087h-.42v.087h.16v.407h.093z"/><path fill="#FF5F00" d="M27.274 22.706h-11.12v-20h11.12v20z"/><path fill="#EB001B" d="M16.86 12.713a12.667 12.667 0 0 1 4.854-9.993 12.714 12.714 0 1 0 0 20 12.665 12.665 0 0 1-4.854-10"/><path fill="#F79E1B" d="M42.28 12.713a12.706 12.706 0 0 1-20.566 9.993 12.713 12.713 0 0 0 0-20 12.707 12.707 0 0 1 20.567 10"/></g><defs><clipPath id="a"><path fill="#fff" d="M.38 0h42.667v32H.38z"/></clipPath></defs></svg>