<svg xmlns="http://www.w3.org/2000/svg" xmlns:xlink="http://www.w3.org/1999/xlink" fill="#ffffff" xml:space="preserve" version="1.1" style="shape-rendering:geometricPrecision;text-rendering:geometricPrecision;image-rendering:optimizeQuality;" viewBox="0 0 100 125" x="0px" y="0px" fill-rule="evenodd" clip-rule="evenodd"><defs><style type="text/css">
   
    .fil0 fill:white
   
  </style></defs><g><path class="fil0" d="M40.18 13.07c-2.4,8.41 4.14,15.14 4.05,24.44 -1.62,-0.62 -2.38,-1.17 -4.3,-1.96 -4.64,-2.18 -10.02,-8.78 -11.24,-15.51 0.41,10.16 4.85,13.43 7.81,16.08 -5.25,2.03 -13.62,-3.6 -20.41,-3.78 7.81,3.54 15.02,7.33 19.87,6.64 4.96,1.7 8.88,4.82 7.03,10.33 -3.19,-0.75 -13.78,-6.33 -22.89,-3.12 13.4,-0.14 13.96,2.47 23.16,6.81 1.79,23.99 -0.5,36.36 -1.86,37.78 -3.79,3.96 -8.17,2.97 -12.11,5.07 4.82,1.85 5.69,0.6 9.23,0.75 2.44,0.96 3.58,-0.41 6.87,0.7 3.19,0.58 3.64,-1.2 7.17,-0.26 3.55,0.74 3.11,-1.78 7.65,-0.36 2.67,0.3 5.07,-0.67 6.53,-1.06 -2.68,-2.79 -10.93,-1.61 -12.94,-4.71 -3.24,-8.68 -1.3,-25.74 -2.4,-36.24 0.98,-6.93 16.91,-2.87 23.37,-11.2 -5.44,4.18 -16.23,3.69 -23.38,5.76 -0.33,-3.93 8.82,-12.01 11.52,-12.22 5.17,-0.75 14.38,-2.29 21.3,-4.79 -7.79,0.21 -7.53,1.33 -18.7,1.59 2.62,-3.82 7.81,-6.29 6.95,-10.46 -0.31,2.83 -5.77,7.25 -8.92,8.37 0.56,-4.19 1.07,-7.37 -1.57,-14.28 0.55,5.11 2.03,10.12 -2.24,16.02 -3.23,2.36 -5.42,5.96 -9.03,6.98 -3.33,-6.27 4.48,-16.54 3.65,-25.89 -0.71,7.42 -5.8,13.29 -6.39,17.34 -2.13,0.16 -8.34,-13.06 -7.78,-18.82zm47.28 33.84c-1.13,-0.15 -2.1,-1.23 -2.11,-1.2 -0.24,2.43 1.98,2.84 3.7,2.63 0.27,-1.48 -1.53,-3.49 -3.59,-2.77 -0.03,0.01 1.02,1.14 2,1.34zm-3.2 3.51c-1.26,-0.16 -2.34,-1.37 -2.34,-1.33 -0.27,2.7 2.19,3.16 4.1,2.93 0.3,-1.66 -1.7,-3.88 -3.98,-3.09 -0.04,0.01 1.13,1.27 2.22,1.49zm-17.39 -34.42c0.29,1.17 -0.42,2.53 -0.38,2.52 2.48,-0.67 2.05,-3 1.2,-4.62 -1.56,0.29 -2.86,2.82 -1.38,4.57 0.02,0.02 0.73,-1.43 0.56,-2.47zm-1.03 12.23c-0.41,0.98 -1.65,1.57 -1.62,1.58 2.12,0.85 3.07,-1.04 3.33,-2.64 -1.27,-0.62 -3.53,0.47 -3.43,2.51 0.01,0.03 1.29,-0.62 1.72,-1.45zm-0.48 -2.35c-0.29,0.68 -1.14,1.09 -1.12,1.1 1.47,0.58 2.66,-1.04 2.47,-2.32 -0.94,0.02 -2.62,0.82 -2.54,2.22 0,0.03 0.89,-0.43 1.19,-1zm0.27 -2.54c-0.57,0.66 -1.67,0.82 -1.65,0.83 1.45,1.17 2.64,-0.06 3.23,-1.24 -0.84,-0.79 -2.86,-0.49 -3.27,1.11 0,0.03 1.15,-0.17 1.69,-0.7zm-6.27 18.11c-0.75,-0.34 -1.18,-1.31 -1.19,-1.29 -0.71,1.62 0.73,2.4 1.96,2.65 0.52,-0.97 -0.27,-2.76 -1.85,-2.72 -0.03,0 0.45,1.01 1.08,1.36zm1.79 -1.38c-0.75,-0.35 -1.18,-1.32 -1.19,-1.29 -0.71,1.62 0.72,2.4 1.96,2.65 0.52,-0.97 -0.27,-2.76 -1.86,-2.73 -0.02,0 0.45,1.02 1.09,1.37zm-33.37 -11.47c0.87,0.68 2.3,0.59 2.27,0.62 -1.49,1.85 -3.31,0.62 -4.37,-0.71 0.84,-1.22 3.46,-1.37 4.39,0.53 0.02,0.04 -1.48,0.09 -2.29,-0.44zm-5.56 -3.31c0.35,1.05 1.57,1.78 1.54,1.79 -2.28,0.69 -3.1,-1.35 -3.22,-3.04 1.37,-0.54 3.63,0.81 3.33,2.91 0,0.03 -1.28,-0.76 -1.65,-1.66zm38.54 30.42c-1,-0.37 -1.66,-1.56 -1.67,-1.53 -0.73,2.16 1.2,3 2.82,3.17 0.55,-1.3 -0.67,-3.5 -2.69,-3.28 -0.03,0.01 0.69,1.25 1.54,1.64zm-2.67 0.27c-0.82,-0.34 -1.32,-1.35 -1.33,-1.33 -0.68,1.76 0.89,2.53 2.22,2.72 0.5,-1.05 -0.43,-2.92 -2.11,-2.8 -0.03,0 0.53,1.06 1.22,1.41zm-4.18 -0.06c-1.09,-0.43 -1.79,-1.74 -1.8,-1.71 -0.84,2.35 1.25,3.3 3.01,3.52 0.63,-1.41 -0.66,-3.84 -2.87,-3.63 -0.04,0 0.73,1.38 1.66,1.82zm9.94 -0.42c-0.99,-0.53 -1.5,-1.88 -1.52,-1.85 -1.08,2.15 0.81,3.32 2.47,3.74 0.77,-1.27 -0.17,-3.76 -2.31,-3.83 -0.04,0 0.53,1.41 1.36,1.94zm3.71 -0.34c-1.18,-0.31 -2.06,-1.61 -2.06,-1.57 -0.61,2.54 1.68,3.3 3.54,3.32 0.49,-1.53 -1.12,-3.92 -3.41,-3.46 -0.03,0.01 0.92,1.36 1.93,1.71zm3.65 -0.66c-1.21,-0.15 -2.24,-1.3 -2.24,-1.26 -0.26,2.57 2.09,3.01 3.92,2.79 0.28,-1.57 -1.63,-3.71 -3.81,-2.95 -0.03,0.02 1.08,1.21 2.13,1.42zm2.01 -1.73c-0.91,-0.12 -1.69,-0.99 -1.69,-0.96 -0.2,1.94 1.58,2.28 2.96,2.11 0.22,-1.19 -1.22,-2.8 -2.87,-2.23 -0.03,0.01 0.81,0.92 1.6,1.08zm3.46 -0.66c-1.37,-0.17 -2.55,-1.49 -2.55,-1.45 -0.29,2.93 2.38,3.43 4.46,3.18 0.32,-1.79 -1.85,-4.21 -4.33,-3.35 -0.04,0.02 1.23,1.38 2.42,1.62zm-64.25 -13.57c1,0.45 2.34,0.04 2.33,0.07 -1.02,2.12 -3.05,1.35 -4.36,0.32 0.53,-1.36 3,-2.11 4.34,-0.49 0.02,0.02 -1.41,0.43 -2.31,0.1zm21.47 18.4c1.21,-0.63 1.85,-2.25 1.87,-2.22 1.29,2.63 -1.02,4.02 -3.04,4.51 -0.93,-1.56 0.25,-4.56 2.85,-4.62 0.04,0 -0.66,1.7 -1.68,2.33zm6.09 -0.71c1.3,-0.55 2.08,-2.17 2.1,-2.13 1.11,2.81 -1.38,4.04 -3.5,4.38 -0.82,-1.68 0.64,-4.67 3.32,-4.51 0.04,0 -0.82,1.7 -1.92,2.26zm-10.66 -0.77c1.46,-0.13 2.77,-1.49 2.78,-1.44 0.19,3.14 -2.68,3.57 -4.9,3.22 -0.27,-1.93 2.14,-4.43 4.76,-3.41 0.04,0.01 -1.37,1.42 -2.64,1.63zm-4.67 -16.92c0.88,-0.27 1.49,-1.27 1.5,-1.24 0.54,1.89 -1.15,2.53 -2.54,2.61 -0.43,-1.14 0.7,-2.98 2.43,-2.71 0.03,0 -0.64,1.05 -1.39,1.34zm5.97 -4.59c0.04,0.91 -0.68,1.84 -0.65,1.84 1.95,-0.15 1.97,-1.97 1.57,-3.3 -1.22,-0.01 -2.56,1.7 -1.7,3.23 0.01,0.02 0.76,-0.97 0.78,-1.77zm-2.74 -1.28c0.06,1.1 -0.82,2.21 -0.78,2.2 2.35,-0.17 2.37,-2.35 1.89,-3.95 -1.47,-0.01 -3.07,2.04 -2.05,3.87 0.02,0.03 0.92,-1.16 0.94,-2.12zm-19.1 8.73c1.42,0.64 3.33,0.06 3.31,0.11 -1.44,3 -4.32,1.91 -6.19,0.45 0.75,-1.93 4.27,-2.99 6.16,-0.7 0.03,0.04 -2,0.61 -3.28,0.14zm-1.21 -3.83c1.27,0.8 3.17,0.49 3.15,0.53 -1.77,2.68 -4.38,1.27 -5.97,-0.36 0.96,-1.75 4.46,-2.32 5.97,0.12 0.03,0.04 -1.99,0.32 -3.15,-0.29zm47.92 15.94c-0.87,-0.65 -1.15,-2.01 -1.17,-1.99 -1.35,1.89 0.28,3.28 1.79,3.93 0.93,-1.1 0.4,-3.6 -1.63,-3.99 -0.03,-0.01 0.3,1.42 1.01,2.05zm2.61 -0.77c-0.77,-0.77 -0.86,-2.15 -0.88,-2.13 -1.61,1.68 -0.19,3.29 1.21,4.15 1.08,-0.96 0.91,-3.52 -1.05,-4.19 -0.03,-0.01 0.1,1.45 0.72,2.17zm-3.18 -6.75c-0.53,0.92 -0.26,2.25 -0.29,2.23 -1.94,-1.17 -1.01,-3.04 0.1,-4.2 1.25,0.63 1.74,3.08 0.07,4.2 -0.03,0.02 -0.28,-1.39 0.12,-2.23zm-17.36 7.86c1.05,-0.96 1.26,-2.77 1.29,-2.74 1.99,2.31 0.03,4.32 -1.88,5.35 -1.34,-1.33 -0.95,-4.67 1.67,-5.41 0.04,-0.02 -0.23,1.89 -1.08,2.8zm-3.31 -1.66c1.05,-0.96 1.26,-2.77 1.3,-2.73 1.98,2.3 0.02,4.31 -1.88,5.34 -1.35,-1.33 -0.95,-4.66 1.66,-5.41 0.04,-0.01 -0.22,1.9 -1.08,2.8zm4.28 -7.93c0.13,1.43 -0.95,2.92 -0.91,2.92 3.06,-0.35 2.98,-3.2 2.26,-5.27 -1.9,0.07 -3.9,2.82 -2.47,5.17 0.03,0.04 1.14,-1.56 1.12,-2.82zm-3.37 -1.08c0.13,1.44 -0.95,2.93 -0.9,2.92 3.06,-0.35 2.97,-3.19 2.26,-5.26 -1.91,0.07 -3.91,2.82 -2.47,5.17 0.02,0.04 1.13,-1.57 1.11,-2.83zm-10.95 10.96c1.41,0.14 2.88,-0.92 2.88,-0.88 -0.36,3.01 -3.16,2.92 -5.2,2.21 0.08,-1.88 2.8,-3.83 5.1,-2.41 0.04,0.02 -1.54,1.11 -2.78,1.08zm-5.4 -0.57c1.31,-0.05 2.52,-1.21 2.52,-1.17 0.06,2.8 -2.51,3.07 -4.46,2.68 -0.17,-1.73 2.06,-3.86 4.35,-2.85 0.03,0.01 -1.27,1.21 -2.41,1.34zm-5 -7.34c1.37,0.41 3.04,-0.35 3.03,-0.31 -0.95,2.92 -3.71,2.28 -5.59,1.18 0.44,-1.85 3.52,-3.26 5.53,-1.4 0.03,0.03 -1.75,0.8 -2.97,0.53zm1.22 5.13c1.45,0.26 3.06,-0.71 3.05,-0.67 -0.62,3.09 -3.51,2.76 -5.56,1.85 0.24,-1.94 3.21,-3.73 5.48,-2.07 0.04,0.03 -1.69,1.02 -2.97,0.89zm-4.14 -2.42c1.13,0.48 2.64,-0.01 2.62,0.03 -1.09,2.41 -3.4,1.59 -4.9,0.46 0.56,-1.54 3.34,-2.45 4.88,-0.66 0.02,0.03 -1.58,0.52 -2.6,0.17zm-2.05 -3.78c1.22,0.55 2.85,0.05 2.84,0.09 -1.24,2.58 -3.71,1.64 -5.31,0.39 0.64,-1.65 3.66,-2.57 5.28,-0.6 0.03,0.03 -1.71,0.52 -2.81,0.12zm71.8 6.23c-1.36,-0.17 -2.54,-1.48 -2.55,-1.44 -0.29,2.92 2.39,3.43 4.46,3.18 0.33,-1.8 -1.84,-4.22 -4.32,-3.36 -0.04,0.02 1.23,1.38 2.41,1.62zm-1.3 -3.78c-1.4,0.25 -2.97,-0.69 -2.96,-0.65 0.61,2.99 3.41,2.66 5.39,1.78 -0.23,-1.87 -3.12,-3.61 -5.31,-1.99 -0.03,0.03 1.64,0.99 2.88,0.86zm4.41 -0.61c-1.21,0.16 -2.52,-0.69 -2.51,-0.66 0.42,2.58 2.83,2.4 4.55,1.71 -0.13,-1.61 -2.54,-3.19 -4.48,-1.89 -0.03,0.03 1.37,0.9 2.44,0.84zm6.88 -2.24c-1.13,-0.14 -2.1,-1.23 -2.11,-1.19 -0.24,2.42 1.98,2.84 3.7,2.63 0.26,-1.48 -1.53,-3.49 -3.59,-2.77 -0.03,0.01 1.02,1.14 2,1.33zm2.5 -3.84c-1.29,0.1 -2.63,-0.89 -2.62,-0.86 0.27,2.77 2.84,2.73 4.72,2.11 -0.04,-1.72 -2.5,-3.56 -4.63,-2.29 -0.04,0.02 1.39,1.04 2.53,1.04zm-0.61 -4.25c-1.17,0.1 -2.4,-0.79 -2.4,-0.76 0.28,2.52 2.62,2.46 4.33,1.88 -0.05,-1.57 -2.31,-3.22 -4.25,-2.05 -0.03,0.02 1.28,0.94 2.32,0.93zm-0.78 -3.66c-1.26,0.32 -2.74,-0.43 -2.73,-0.39 0.74,2.67 3.26,2.2 5,1.27 -0.33,-1.69 -3.06,-3.08 -4.95,-1.47 -0.02,0.03 1.56,0.79 2.68,0.59zm0.31 -3.6c-0.88,0.95 -2.53,1.13 -2.5,1.16 2.08,1.83 3.93,0.06 4.88,-1.67 -1.2,-1.24 -4.24,-0.91 -4.94,1.47 -0.01,0.04 1.73,-0.19 2.56,-0.96zm-2.08 -2.64c-0.25,1.27 -1.56,2.29 -1.52,2.3 2.74,0.46 3.38,-2.02 3.28,-3.99 -1.67,-0.42 -4.09,1.46 -3.44,3.85 0.02,0.04 1.38,-1.07 1.68,-2.16zm-2.58 -4.34c-0.19,1.21 -1.4,2.21 -1.36,2.22 2.59,0.35 3.12,-2.01 2.97,-3.87 -1.59,-0.35 -3.81,1.51 -3.12,3.74 0.01,0.04 1.26,-1.05 1.51,-2.09zm1.5 18.94c-1.26,-0.04 -2.44,-1.14 -2.44,-1.1 -0.03,2.69 2.45,2.93 4.32,2.53 0.15,-1.66 -2.02,-3.69 -4.22,-2.7 -0.03,0.02 1.24,1.15 2.34,1.27zm-2.62 2c-1.42,-0.04 -2.76,-1.29 -2.76,-1.25 -0.03,3.05 2.78,3.32 4.9,2.87 0.16,-1.88 -2.29,-4.18 -4.78,-3.06 -0.04,0.02 1.4,1.31 2.64,1.44zm-4.95 0.4c-1.35,0.46 -3.05,-0.22 -3.03,-0.18 1.06,2.85 3.78,2.11 5.6,0.93 -0.52,-1.81 -3.63,-3.09 -5.55,-1.16 -0.03,0.04 1.77,0.73 2.98,0.41zm-0.13 -3.29c-1.42,-0.04 -2.76,-1.29 -2.76,-1.25 -0.03,3.05 2.78,3.32 4.9,2.87 0.16,-1.88 -2.3,-4.18 -4.78,-3.06 -0.04,0.02 1.4,1.31 2.64,1.44zm7.65 -2.57c-1.35,0.19 -2.81,-0.76 -2.8,-0.72 0.48,2.87 3.15,2.66 5.07,1.89 -0.15,-1.8 -2.84,-3.55 -4.99,-2.09 -0.03,0.03 1.53,1 2.72,0.92zm-74.25 4.85c1.13,0.66 2.77,0.35 2.75,0.39 -1.47,2.38 -3.78,1.2 -5.2,-0.18 0.79,-1.55 3.83,-2.12 5.2,-0.03 0.03,0.03 -1.72,0.32 -2.75,-0.18zm2.3 -3.2c1.08,0.7 2.71,0.47 2.68,0.5 -1.55,2.27 -3.76,1.02 -5.09,-0.41 0.85,-1.48 3.85,-1.9 5.1,0.2 0.02,0.04 -1.7,0.25 -2.69,-0.29zm-7.79 -11.23c0.99,0.92 2.72,0.97 2.7,1 -2.03,2.08 -4.09,0.38 -5.22,-1.34 1.15,-1.38 4.34,-1.28 5.26,1.14 0.01,0.03 -1.81,-0.06 -2.74,-0.8zm3.06 -2.15c0.68,1.25 2.38,1.87 2.34,1.89 -2.69,1.39 -4.18,-0.98 -4.73,-3.06 1.6,-0.99 4.73,0.17 4.85,2.87 0,0.04 -1.78,-0.66 -2.46,-1.7zm48.76 26.05c-0.72,-0.82 -0.73,-2.21 -0.75,-2.18 -1.71,1.57 -0.39,3.26 0.96,4.2 1.13,-0.89 1.12,-3.44 -0.79,-4.23 -0.03,-0.02 0,1.45 0.58,2.21zm2.68 -0.49c-0.72,-0.82 -0.72,-2.2 -0.75,-2.18 -1.7,1.57 -0.39,3.26 0.96,4.21 1.14,-0.89 1.13,-3.45 -0.79,-4.24 -0.03,-0.02 0.01,1.45 0.58,2.21zm2.64 -0.64c-0.72,-0.82 -0.72,-2.2 -0.75,-2.18 -1.7,1.57 -0.39,3.27 0.96,4.21 1.14,-0.89 1.13,-3.45 -0.79,-4.24 -0.03,-0.02 0.01,1.45 0.58,2.21zm2.64 -0.5c-0.79,-0.85 -0.84,-2.34 -0.87,-2.31 -1.77,1.73 -0.31,3.5 1.16,4.46 1.18,-0.98 1.09,-3.72 -0.98,-4.5 -0.03,-0.01 0.05,1.55 0.69,2.35zm-5.06 -11.36c-1.02,-0.47 -1.61,-1.79 -1.62,-1.76 -0.97,2.21 0.99,3.27 2.67,3.6 0.7,-1.32 -0.37,-3.75 -2.52,-3.7 -0.04,0 0.61,1.38 1.47,1.86zm-6.33 6.14c-0.24,1.11 0.48,2.39 0.44,2.38 -2.37,-0.56 -2.04,-2.79 -1.29,-4.34 1.5,0.23 2.8,2.58 1.46,4.28 -0.02,0.03 -0.74,-1.33 -0.61,-2.32zm2.65 -0.42c-0.28,1.05 0.32,2.3 0.29,2.29 -2.22,-0.67 -1.79,-2.76 -0.99,-4.2 1.41,0.3 2.53,2.6 1.15,4.15 -0.02,0.03 -0.63,-1.3 -0.45,-2.24zm2.94 -0.62c-0.34,1.11 0.27,2.47 0.24,2.45 -2.36,-0.77 -1.83,-3 -0.93,-4.51 1.5,0.36 2.62,2.86 1.11,4.47 -0.03,0.03 -0.64,-1.41 -0.42,-2.41zm3.78 -5.6c-0.93,-0.61 -1.31,-1.97 -1.33,-1.94 -1.25,2.01 0.77,3.56 2.51,3.51 0.02,-1.27 -0.25,-3.34 -2.35,-3.59 -0.03,-0.01 0.4,1.43 1.17,2.02zm3.15 -0.44c-0.92,-0.6 -1.31,-1.97 -1.33,-1.94 -1.25,2.02 0.92,3.11 2.51,3.66 0.02,-1.27 -0.25,-3.49 -2.35,-3.74 -0.03,0 0.4,1.43 1.17,2.02zm3.27 -0.78c-1.05,-0.37 -1.74,-1.61 -1.75,-1.58 -0.75,2.25 1.98,3.02 3.66,3.2 -0.27,-1.24 -1.42,-3.55 -3.53,-3.31 -0.03,0 0.73,1.3 1.62,1.69zm3.38 -0.53c-0.94,-0.58 -1.37,-1.93 -1.38,-1.9 -1.2,2.05 0.59,3.31 2.2,3.82 0.84,-1.21 0.06,-3.71 -2.05,-3.91 -0.03,0 0.44,1.42 1.23,1.99zm-0.95 -6.47c-0.69,0.87 -0.63,2.29 -0.65,2.27 -1.82,-1.52 -0.57,-3.32 0.76,-4.35 1.2,0.85 1.32,3.47 -0.59,4.37 -0.03,0.02 -0.07,-1.48 0.48,-2.29zm-5.64 1.69c-1.09,0.17 -2.27,-0.58 -2.27,-0.55 0.42,2.31 2.58,2.11 4.11,1.46 -0.14,-1.44 -2.33,-2.82 -4.04,-1.62 -0.03,0.02 1.24,0.79 2.2,0.71zm2.06 -2.06c-1.08,0.17 -2.27,-0.58 -2.27,-0.55 0.42,2.31 2.58,2.11 4.12,1.46 -0.15,-1.44 -2.34,-2.82 -4.05,-1.62 -0.03,0.02 1.24,0.79 2.2,0.71zm-23.71 -4.71c0.32,0.84 1.55,1.1 1.52,1.11 -1.81,0.63 -2.53,-0.98 -2.69,-2.34 1.05,0.27 2.95,0.52 2.78,2.23 0,0.02 -1.28,-0.29 -1.61,-1zm0.56 -2.29c0.53,0.83 2,1.11 1.97,1.12 -1.81,1.08 -2.96,-0.77 -3.43,-2.2 1.18,-0.24 3.31,0.19 3.5,2.06 0.01,0.03 -1.52,-0.29 -2.04,-0.98zm-2.53 3.98c-0.48,0.76 -1.58,1.09 -1.55,1.11 1.64,0.98 2.68,-0.46 3.1,-1.75 -0.97,-0.69 -2.99,-0.08 -3.17,1.62 0,0.03 1.15,-0.35 1.62,-0.98zm-0.64 -2.7c-0.56,0.89 -2,1.34 -1.97,1.35 1.94,1.16 2.98,-0.85 3.49,-2.38 -1.2,-0.26 -3.36,0.23 -3.57,2.23 0,0.04 1.5,-0.46 2.05,-1.2zm-0.88 -2.9c-0.65,1.03 -2.14,1.48 -2.11,1.49 2.24,1.34 3.64,-0.62 4.23,-2.37 -1.32,-0.94 -4.07,-0.11 -4.31,2.2 -0.01,0.04 1.56,-0.47 2.19,-1.32zm-28.16 -5.71c0.42,1.26 1.89,2.13 1.84,2.14 -2.72,0.82 -3.69,-1.62 -3.85,-3.64 1.65,-0.64 4.35,0.97 4,3.48 -0.01,0.04 -1.54,-0.91 -1.99,-1.98zm-1.39 3.77c0.42,1.26 1.88,2.13 1.84,2.14 -2.72,0.83 -3.7,-1.62 -3.85,-3.63 1.65,-0.65 4.35,0.96 3.99,3.48 0,0.04 -1.53,-0.92 -1.98,-1.99zm2.44 4.53c0.52,1.58 2.35,2.67 2.3,2.68 -3.4,1.03 -4.62,-2.02 -4.81,-4.54 2.06,-0.8 5.43,1.2 4.98,4.34 0,0.05 -1.91,-1.14 -2.47,-2.48zm2.55 -3.27c0.49,1.48 2.21,2.51 2.16,2.52 -3.19,0.97 -4.34,-1.9 -4.52,-4.27 1.93,-0.75 5.1,1.13 4.69,4.08 -0.01,0.05 -1.8,-1.07 -2.33,-2.33zm7.65 -11.45c0.01,1.28 1.1,2.51 1.06,2.51 -2.74,-0.04 -2.91,-2.57 -2.46,-4.47 1.7,-0.11 3.7,2.16 2.64,4.37 -0.02,0.03 -1.14,-1.29 -1.24,-2.41zm11.64 -3.86c-0.7,1.21 -0.36,2.97 -0.4,2.94 -2.54,-1.56 -1.3,-4.03 0.18,-5.55 1.64,0.84 2.27,4.08 0.04,5.55 -0.03,0.02 -0.35,-1.84 0.18,-2.94zm3.89 -0.43c-0.46,1.31 0.19,2.97 0.15,2.96 -2.79,-1.07 -2.03,-3.72 -0.85,-5.49 1.77,0.52 2.98,3.59 1.07,5.45 -0.03,0.03 -0.69,-1.74 -0.37,-2.92zm4.48 0.62c0.6,1.27 0.1,3 0.14,2.98 2.69,-1.34 1.67,-3.92 0.32,-5.58 -1.72,0.7 -2.64,3.89 -0.54,5.56 0.03,0.03 0.52,-1.81 0.08,-2.96zm-0.49 7.86c0.47,1.12 -0.03,2.59 0.01,2.58 2.37,-1.06 1.59,-3.32 0.5,-4.81 -1.52,0.53 -2.44,3.25 -0.69,4.78 0.03,0.02 0.52,-1.54 0.18,-2.55zm36.79 25.67c-1.21,-0.41 -2.03,-1.83 -2.04,-1.79 -0.82,2.61 1.51,3.57 3.45,3.74 0.63,-1.58 -0.88,-4.19 -3.3,-3.87 -0.04,0 0.86,1.48 1.89,1.92zm-29.51 -33.23c0.46,1.27 -0.16,2.9 -0.13,2.88 2.71,-1.06 1.95,-3.63 0.8,-5.34 -1.72,0.52 -2.88,3.51 -1.01,5.3 0.03,0.03 0.66,-1.69 0.34,-2.84zm5.18 -0.59c0.07,1.45 -1.08,2.9 -1.04,2.9 3.09,-0.22 3.13,-3.08 2.5,-5.18 -1.91,-0.02 -4.04,2.65 -2.7,5.07 0.02,0.03 1.2,-1.52 1.24,-2.79zm3.89 2.02c0.11,1.74 -1.25,3.52 -1.2,3.51 3.73,-0.33 3.72,-3.78 2.92,-6.31 -2.32,0.02 -4.83,3.29 -3.17,6.19 0.03,0.04 1.43,-1.86 1.45,-3.39zm-6.98 2.4c0.46,1.27 -0.17,2.9 -0.13,2.88 2.71,-1.06 1.95,-3.63 0.8,-5.35 -1.72,0.52 -2.88,3.52 -1.01,5.31 0.03,0.03 0.66,-1.7 0.34,-2.84zm11.46 -0.61c0.13,1.38 -0.91,2.82 -0.86,2.81 2.93,-0.35 2.84,-3.08 2.14,-5.06 -1.83,0.07 -3.73,2.72 -2.34,4.97 0.02,0.03 1.08,-1.51 1.06,-2.72zm1.71 3.25c-0.01,1.38 -1.18,2.71 -1.14,2.71 2.96,-0.05 3.15,-2.77 2.66,-4.81 -1.83,-0.12 -3.99,2.32 -2.84,4.69 0.02,0.04 1.23,-1.38 1.32,-2.59zm3.31 0.83c-0.01,1.38 -1.18,2.7 -1.14,2.7 2.95,-0.04 3.14,-2.77 2.65,-4.81 -1.82,-0.11 -3.99,2.33 -2.84,4.7 0.02,0.04 1.23,-1.38 1.33,-2.59zm10.27 10.16c-0.53,1.28 -2.11,2.06 -2.08,2.07 2.76,1.08 3.96,-1.37 4.28,-3.45 -1.65,-0.8 -4.57,0.65 -4.41,3.28 0.01,0.04 1.67,-0.82 2.21,-1.9zm-3.39 -8.04c0,1.28 -1.09,2.5 -1.05,2.5 2.73,-0.04 2.91,-2.56 2.45,-4.45 -1.69,-0.11 -3.69,2.15 -2.62,4.35 0.02,0.03 1.13,-1.28 1.22,-2.4zm1.3 3.51c-0.57,1.26 -2.18,1.99 -2.14,2 2.72,1.16 3.99,-1.25 4.38,-3.31 -1.62,-0.85 -4.59,0.5 -4.51,3.14 0,0.04 1.69,-0.77 2.27,-1.83zm-4.62 0.67c-0.52,1.14 -1.99,1.81 -1.95,1.83 2.48,1.05 3.64,-1.15 4,-3.03 -1.48,-0.77 -4.19,0.46 -4.11,2.86 0,0.04 1.53,-0.69 2.06,-1.66zm2.54 4.42c-0.01,1.47 -1.26,2.88 -1.21,2.87 3.15,-0.05 3.34,-2.95 2.82,-5.12 -1.94,-0.12 -4.24,2.48 -3.02,5 0.02,0.04 1.31,-1.47 1.41,-2.75zm-69.18 10.69c1.14,0.69 2.84,0.39 2.81,0.43 -1.54,2.42 -3.89,1.18 -5.33,-0.26 0.84,-1.57 3.96,-2.11 5.34,0.05 0.02,0.03 -1.77,0.31 -2.82,-0.22zm-2.42 -2.91c1.06,0.7 2.68,0.49 2.66,0.52 -1.57,2.24 -3.74,0.98 -5.06,-0.45 0.86,-1.46 3.84,-1.85 5.07,0.25 0.02,0.03 -1.7,0.23 -2.67,-0.32zm4.27 -10.07c0.47,1.33 2.05,2.23 2.01,2.24 -2.89,0.94 -3.97,-1.64 -4.18,-3.79 1.74,-0.71 4.65,0.94 4.32,3.62 0,0.04 -1.65,-0.93 -2.15,-2.07zm8.77 -6.87c0.51,1.58 2.34,2.67 2.29,2.68 -3.4,1.03 -4.61,-2.02 -4.8,-4.54 2.05,-0.8 5.42,1.2 4.98,4.35 -0.01,0.05 -1.92,-1.14 -2.47,-2.49zm4.15 -2.28c0.01,1.66 1.42,3.26 1.37,3.25 -3.56,-0.05 -3.78,-3.33 -3.19,-5.79 2.19,-0.13 4.8,2.8 3.41,5.66 -0.02,0.04 -1.47,-1.67 -1.59,-3.12zm7.06 0.99c0.01,1.66 1.42,3.25 1.37,3.25 -3.56,-0.06 -3.78,-3.33 -3.19,-5.79 2.2,-0.13 4.8,2.8 3.41,5.66 -0.02,0.04 -1.47,-1.67 -1.59,-3.12zm0.96 -5.32c0.02,1.66 1.43,3.26 1.37,3.26 -3.55,-0.06 -3.77,-3.34 -3.19,-5.79 2.2,-0.14 4.8,2.8 3.42,5.65 -0.02,0.05 -1.48,-1.67 -1.6,-3.12zm3.78 0.93c0.92,1.05 0.94,2.83 0.97,2.81 2.19,-2.04 0.48,-4.22 -1.27,-5.42 -1.45,1.15 -1.42,4.45 1.05,5.46 0.04,0.01 -0.01,-1.88 -0.75,-2.85zm8.63 -0.29c0.59,1.28 0.1,3 0.14,2.98 2.69,-1.34 1.66,-3.92 0.32,-5.58 -1.73,0.7 -2.64,3.89 -0.54,5.56 0.03,0.03 0.51,-1.81 0.08,-2.96zm4.87 0.52c0.57,1.38 -0.04,3.2 0,3.18 2.92,-1.3 1.96,-4.09 0.61,-5.91 -1.87,0.65 -2.99,4 -0.85,5.88 0.04,0.03 0.64,-1.9 0.24,-3.15zm9.49 2.04c0.46,1.28 -0.17,2.9 -0.13,2.89 2.71,-1.06 1.95,-3.63 0.8,-5.35 -1.72,0.52 -2.88,3.51 -1.01,5.31 0.03,0.02 0.66,-1.7 0.34,-2.85zm5.34 1.23c0.32,1.31 -0.48,2.85 -0.43,2.84 2.79,-0.76 2.31,-3.39 1.35,-5.21 -1.76,0.33 -3.22,3.17 -1.56,5.15 0.03,0.03 0.83,-1.61 0.64,-2.78zm4.54 4.56c0.14,1.37 -0.88,2.81 -0.84,2.8 2.92,-0.37 2.81,-3.09 2.11,-5.06 -1.83,0.08 -3.7,2.74 -2.31,4.97 0.02,0.03 1.07,-1.51 1.04,-2.71zm6.62 -2.07c-0.01,1.56 -1.33,3.06 -1.29,3.05 3.34,-0.05 3.55,-3.13 3,-5.43 -2.06,-0.13 -4.51,2.63 -3.21,5.31 0.02,0.04 1.39,-1.57 1.5,-2.93zm8.87 4.4c-0.58,1.08 -2.04,1.63 -2.01,1.65 2.34,1.18 3.61,-0.88 4.07,-2.68 -1.39,-0.85 -4.09,0.17 -4.17,2.51 0,0.04 1.54,-0.58 2.11,-1.48zm-44.93 8.13c0.69,0.77 2.01,0.94 1.98,0.96 -1.69,1.44 -3.14,-0.01 -3.88,-1.4 0.97,-0.97 3.4,-0.66 3.93,1.24 0.01,0.03 -1.38,-0.17 -2.03,-0.8zm-1.73 -3.09c0.82,0.92 2.38,1.12 2.35,1.14 -2.01,1.71 -3.73,-0.01 -4.61,-1.66 1.16,-1.16 4.04,-0.79 4.67,1.47 0.01,0.04 -1.64,-0.2 -2.41,-0.95zm-0.89 -3.3c0.82,0.92 2.38,1.12 2.35,1.14 -2.01,1.71 -3.74,-0.01 -4.61,-1.66 1.16,-1.16 4.04,-0.79 4.67,1.47 0.01,0.04 -1.64,-0.2 -2.41,-0.95zm3.62 11.54c0.87,1.06 0.82,2.82 0.85,2.79 2.23,-1.92 0.63,-4.11 -1.04,-5.36 -1.47,1.07 -1.57,4.31 0.82,5.4 0.04,0.01 0.06,-1.84 -0.63,-2.83zm-5.95 -4.45c-0.01,1.23 -1.05,2.42 -1.02,2.41 2.64,-0.04 2.81,-2.47 2.37,-4.29 -1.63,-0.1 -3.56,2.08 -2.53,4.19 0.01,0.04 1.09,-1.23 1.18,-2.31zm2.35 2.28c-0.01,1.23 -1.05,2.41 -1.02,2.41 2.64,-0.04 2.81,-2.47 2.37,-4.29 -1.63,-0.1 -3.56,2.07 -2.53,4.19 0.01,0.03 1.09,-1.23 1.18,-2.31zm20.91 -0.28c0.96,0.44 1.51,1.68 1.53,1.65 0.9,-2.08 -0.94,-3.07 -2.52,-3.38 -0.66,1.24 0.36,3.52 2.38,3.47 0.03,0 -0.58,-1.29 -1.39,-1.74zm-5.68 5.35c-0.01,1.24 -1.06,2.42 -1.02,2.42 2.64,-0.04 2.81,-2.47 2.38,-4.3 -1.64,-0.1 -3.57,2.08 -2.55,4.2 0.02,0.03 1.1,-1.24 1.19,-2.32zm3.53 -3.18c0.88,0.58 1.24,1.89 1.26,1.86 1.2,-1.91 -0.47,-3.17 -1.98,-3.71 -0.84,1.12 -0.18,3.53 1.83,3.78 0.03,0.01 -0.38,-1.36 -1.11,-1.93zm-3.3 -0.34c-0.68,0.93 -2.13,1.25 -2.1,1.27 2.03,1.42 3.5,-0.33 4.17,-1.96 -1.19,-0.98 -3.85,-0.38 -4.24,1.8 0,0.03 1.51,-0.34 2.17,-1.11zm6.52 -5.05c0.97,0.69 2.5,0.54 2.48,0.57 -1.54,2.05 -3.55,0.81 -4.74,-0.57 0.85,-1.35 3.66,-1.63 4.75,0.38 0.02,0.03 -1.59,0.16 -2.49,-0.38zm0.09 -3.58c1.07,0.75 2.73,0.59 2.7,0.62 -1.66,2.23 -3.85,0.87 -5.14,-0.63 0.92,-1.46 3.98,-1.77 5.16,0.42 0.02,0.04 -1.74,0.18 -2.72,-0.41zm-4.98 5.05c-1.1,0.78 -2.82,0.61 -2.79,0.64 1.72,2.31 3.98,0.91 5.32,-0.64 -0.95,-1.52 -4.11,-1.84 -5.34,0.42 -0.02,0.04 1.8,0.19 2.81,-0.42zm0.85 -3.42c-1.1,0.78 -2.82,0.61 -2.79,0.64 1.72,2.31 3.99,0.91 5.32,-0.64 -0.95,-1.51 -4.11,-1.83 -5.34,0.43 -0.02,0.03 1.8,0.18 2.81,-0.43zm-6.09 -4.89c0.81,0.95 2.39,1.19 2.36,1.21 -2.08,1.68 -3.38,-0.53 -4.22,-2.23 1.71,-0.22 3.7,-0.27 4.28,2.04 0.01,0.04 -1.65,-0.24 -2.42,-1.02zm1.39 -2.9c0.81,0.95 2.39,1.18 2.36,1.21 -2.07,1.68 -3.38,-0.53 -4.22,-2.23 1.71,-0.22 3.71,-0.27 4.29,2.04 0.01,0.04 -1.66,-0.25 -2.43,-1.02zm0.69 -2.85c0.81,0.96 2.38,1.19 2.35,1.22 -2.07,1.67 -3.37,-0.54 -4.22,-2.23 1.72,-0.22 3.71,-0.27 4.29,2.04 0.01,0.04 -1.65,-0.25 -2.42,-1.03zm-20.44 35.97c1.06,-0.95 1.27,-2.76 1.3,-2.73 1.99,2.31 0.02,4.32 -1.88,5.35 -1.34,-1.33 -0.95,-4.67 1.66,-5.42 0.04,-0.01 -0.22,1.9 -1.08,2.8zm-3.36 -0.91c1,-1 1.12,-2.82 1.15,-2.79 2.11,2.2 0.25,4.31 -1.6,5.43 -1.41,-1.26 -1.19,-4.61 1.39,-5.49 0.04,-0.01 -0.13,1.91 -0.94,2.85zm-3.59 -0.26c0.88,-1.11 0.79,-2.93 0.83,-2.91 2.34,1.95 0.74,4.26 -0.97,5.58 -1.54,-1.08 -1.71,-4.44 0.74,-5.61 0.04,-0.02 0.1,1.91 -0.6,2.94zm-3.39 -0.11c0.76,-1.2 0.48,-3 0.52,-2.98 2.53,1.7 1.17,4.16 -0.39,5.66 -1.65,-0.93 -2.16,-4.25 0.17,-5.66 0.03,-0.03 0.28,1.88 -0.3,2.98zm10.51 -7.26c0.4,1.56 -0.53,3.4 -0.48,3.39 3.31,-0.94 2.71,-4.06 1.55,-6.22 -2.09,0.42 -3.8,3.81 -1.79,6.14 0.03,0.04 0.97,-1.92 0.72,-3.31zm-4.1 -0.31c0.81,1.39 0.42,3.41 0.46,3.39 2.93,-1.81 1.5,-4.65 -0.2,-6.4 -1.9,0.96 -2.62,4.7 -0.05,6.39 0.04,0.03 0.4,-2.11 -0.21,-3.38zm-4.15 0.45c0.99,1.08 1.04,2.97 1.07,2.93 2.27,-2.18 0.44,-4.44 -1.42,-5.67 -1.51,1.23 -1.43,4.7 1.19,5.72 0.05,0.02 -0.05,-1.97 -0.84,-2.98zm56.01 -12.51c-0.92,1.05 -0.93,2.82 -0.96,2.79 -2.18,-2.02 -0.49,-4.18 1.25,-5.38 1.44,1.15 1.42,4.42 -1.03,5.42 -0.04,0.02 0.01,-1.86 0.74,-2.83zm1.13 6.84c-1.31,-0.5 -2.16,-2.1 -2.18,-2.06 -1,2.85 1.54,4 3.66,4.26 0.77,-1.71 -0.8,-4.65 -3.48,-4.39 -0.04,0 0.88,1.66 2,2.19zm-12.11 -10.55c0.33,1.11 1.56,1.42 1.52,1.43 -2.38,0.64 -2.81,-2.31 -2.6,-3.57 1.31,0.72 2.78,1.22 2.73,3.43 -0.01,0.04 -1.29,-0.34 -1.65,-1.29zm1.8 -3c0.44,1.17 1.84,1.93 1.8,1.94 -2.51,0.88 -3.52,-1.37 -3.74,-3.26 1.51,-0.66 4.11,0.74 3.87,3.11 0,0.04 -1.47,-0.79 -1.93,-1.79zm-9.93 -5.66c0.63,0.74 1.87,0.93 1.85,0.95 -1.63,1.32 -3.53,-0.88 -3.57,-1.77 1.11,-0.59 3.16,-0.19 3.62,1.62 0.01,0.03 -1.3,-0.19 -1.9,-0.8zm0.23 3.11c0.62,0.9 1.98,1.25 1.95,1.27 -1.96,1.28 -3.29,-0.42 -3.88,-1.98 1.14,-0.89 3.65,-0.25 3.96,1.82 0,0.03 -1.43,-0.36 -2.03,-1.11zm-23.62 -2.67c0.89,1.16 2.73,1.54 2.69,1.56 -2.53,1.84 -4.43,-0.34 -5.32,-2.38 1.48,-1.27 4.87,-0.58 5.41,2.17 0.01,0.04 -1.92,-0.39 -2.78,-1.35zm0.25 -4.27c0.87,1.13 2.67,1.5 2.63,1.52 -2.47,1.8 -4.32,-0.33 -5.19,-2.32 1.44,-1.24 4.74,-0.56 5.27,2.11 0.01,0.05 -1.87,-0.38 -2.71,-1.31zm-15.63 24.11c1.12,-0.33 1.91,-1.6 1.92,-1.57 0.67,2.41 -1.49,3.22 -3.27,3.31 -0.53,-1.45 0.93,-3.79 3.13,-3.43 0.04,0 -0.83,1.32 -1.78,1.69zm-3.27 -1.34c1.31,-0.29 2.33,-1.67 2.34,-1.63 0.56,2.82 -2,3.56 -4.04,3.51 -0.48,-1.72 1.4,-4.28 3.9,-3.67 0.03,0.01 -1.07,1.45 -2.2,1.79zm-2.95 -1.43c1.22,-0.21 2.23,-1.45 2.24,-1.41 0.38,2.63 -2.01,3.2 -3.9,3.06 -0.37,-1.61 1.49,-3.89 3.77,-3.21 0.04,0 -1.06,1.29 -2.11,1.56zm9.2 -3.94c0.76,1.28 0.42,3.15 0.46,3.12 2.69,-1.68 1.34,-4.29 -0.24,-5.9 -1.74,0.91 -2.37,4.36 0,5.9 0.04,0.03 0.36,-1.95 -0.22,-3.12zm-3.74 -1.22c0.82,1.29 0.51,3.23 0.55,3.2 2.73,-1.81 1.28,-4.46 -0.4,-6.08 -1.78,0.99 -2.33,4.56 0.16,6.09 0.04,0.03 0.32,-2.03 -0.31,-3.21zm-4.07 -0.65c1.1,1.12 1.23,3.13 1.26,3.1 2.34,-2.43 0.29,-4.76 -1.75,-6.01 -1.56,1.38 -1.33,5.08 1.51,6.07 0.04,0.01 -0.13,-2.11 -1.02,-3.16zm28.18 -11.04c-0.99,1.28 -3.02,1.7 -2.98,1.73 2.8,2.04 4.9,-0.38 5.89,-2.64 -1.63,-1.4 -5.39,-0.64 -5.99,2.4 -0.01,0.05 2.13,-0.43 3.08,-1.49zm-19.22 2.2c0.56,1.6 2.46,2.67 2.41,2.68 -3.45,1.13 -4.76,-1.96 -5.01,-4.53 2.08,-0.86 5.56,1.11 5.18,4.33 -0.01,0.05 -1.98,-1.12 -2.58,-2.48zm1.01 4.63c0.81,1.2 2.61,1.66 2.57,1.69 -2.6,1.68 -4.35,-0.58 -5.12,-2.64 1.52,-1.16 4.83,-0.31 5.22,2.43 0,0.04 -1.88,-0.49 -2.67,-1.48zm7.5 -0.31c-0.33,1.55 -1.96,2.77 -1.91,2.78 3.34,0.63 4.18,-2.39 4.11,-4.8 -2.03,-0.56 -5.03,1.69 -4.3,4.63 0.02,0.05 1.71,-1.27 2.1,-2.61zm32.24 19.07c0,1.36 1.15,2.67 1.11,2.67 -2.92,-0.06 -3.08,-2.75 -2.59,-4.75 1.8,-0.11 3.92,2.31 2.77,4.64 -0.02,0.04 -1.2,-1.37 -1.29,-2.56zm-0.45 -22.81c-0.74,0.87 -2.18,1.08 -2.16,1.1 1.89,1.54 3.46,-0.07 4.24,-1.62 -1.1,-1.05 -3.76,-0.66 -4.29,1.45 -0.01,0.04 1.51,-0.22 2.21,-0.93zm-9.38 0.66c-1.03,0.52 -2.45,0.16 -2.43,0.19 1.16,2.16 3.24,1.26 4.56,0.12 -0.62,-1.39 -3.24,-2.05 -4.55,-0.3 -0.02,0.03 1.49,0.38 2.42,-0.01zm0.35 -3.33c-0.76,0.87 -2.23,1.06 -2.2,1.08 1.89,1.6 4.16,-0.84 4.32,-1.58 -1.08,-0.68 -3.8,-0.73 -4.38,1.41 -0.01,0.03 1.54,-0.2 2.26,-0.91zm-37.22 25.51c1.15,0.55 1.79,2.04 1.81,2.01 1.11,-2.48 -1.08,-3.7 -2.97,-4.09 -0.81,1.48 0.38,4.23 2.8,4.2 0.04,0 -0.67,-1.56 -1.64,-2.12zm56.11 -20.2c-0.95,1.19 -2.86,1.56 -2.82,1.58 2.6,1.96 4.6,-0.29 5.56,-2.39 -1.52,-1.34 -5.05,-0.67 -5.65,2.17 -0.01,0.05 2.01,-0.38 2.91,-1.36zm-32.03 -9.59c-0.98,1.28 -3.01,1.69 -2.97,1.72 2.8,2.04 4.89,-0.38 5.87,-2.63 -1.63,-1.39 -5.36,-0.63 -5.96,2.4 -0.01,0.04 2.12,-0.44 3.06,-1.49zm-11.24 6.33c-0.22,1.57 -1.76,2.89 -1.72,2.9 3.37,0.4 4.01,-2.66 3.77,-5.06 -2.06,-0.41 -4.9,2.02 -3.96,4.9 0.01,0.05 1.61,-1.38 1.91,-2.74zm30.3 -5.36c-0.76,0.96 -0.68,2.54 -0.71,2.51 -2.03,-1.68 -0.64,-3.68 0.84,-4.83 1.33,0.94 1.48,3.85 -0.65,4.86 -0.03,0.02 -0.08,-1.65 0.52,-2.54zm1.43 3.39c-0.01,1 -0.85,1.95 -0.82,1.95 2.13,-0.03 2.26,-1.99 1.91,-3.47 -1.32,-0.08 -2.88,1.68 -2.05,3.39 0.01,0.03 0.89,-1 0.96,-1.87zm8 31.22c-1.18,-0.43 -1.96,-1.83 -1.97,-1.79 -0.85,2.54 1.42,3.52 3.31,3.72 0.65,-1.53 -0.78,-4.12 -3.16,-3.85 -0.04,0.01 0.81,1.47 1.82,1.92zm2.83 -1.62c-1.26,-0.4 -2.14,-1.85 -2.15,-1.81 -0.79,2.72 1.66,3.66 3.66,3.79 0.62,-1.64 -1.01,-4.31 -3.51,-3.92 -0.04,0 0.93,1.51 2,1.94zm1.91 -3.12c-1.13,0.43 -2.59,-0.12 -2.57,-0.08 0.97,2.41 3.26,1.7 4.78,0.66 -0.48,-1.54 -3.16,-2.54 -4.75,-0.85 -0.02,0.02 1.52,0.57 2.54,0.27zm-7.23 -1.86c0,1.36 1.15,2.67 1.11,2.67 -2.92,-0.07 -3.08,-2.75 -2.59,-4.76 1.8,-0.1 3.92,2.32 2.77,4.65 -0.02,0.04 -1.2,-1.37 -1.29,-2.56zm3.32 -1.37c-0.31,1.29 0.48,2.8 0.44,2.79 -2.75,-0.73 -2.29,-3.32 -1.36,-5.12 1.73,0.32 3.19,3.11 1.57,5.06 -0.03,0.03 -0.83,-1.58 -0.65,-2.73zm1.48 -14.15c-1.11,0.34 -2.47,-0.27 -2.46,-0.24 0.79,2.37 3.03,1.83 4.55,0.92 -0.37,-1.5 -2.88,-2.62 -4.51,-1.1 -0.02,0.03 1.43,0.64 2.42,0.42zm9.53 8.19c-1.32,-0.51 -2.17,-2.1 -2.19,-2.06 -1,2.85 1.54,4 3.67,4.26 0.76,-1.71 -0.81,-4.65 -3.49,-4.4 -0.05,0.01 0.89,1.67 2.01,2.2zm3.9 -0.77c-1.27,0.35 -2.79,-0.38 -2.78,-0.34 0.82,2.69 3.37,2.15 5.11,1.16 -0.38,-1.7 -3.18,-3.04 -5.06,-1.36 -0.03,0.03 1.6,0.76 2.73,0.54zm-10.96 6.45c-1.22,0.53 -1.94,2.07 -1.96,2.03 -1.07,-2.63 1.26,-3.83 3.25,-4.17 0.79,1.57 -0.54,4.4 -3.07,4.29 -0.05,0 0.75,-1.61 1.78,-2.15zm-59.01 6.88c0.61,-1.19 2.2,-1.82 2.16,-1.84 -2.57,-1.25 -3.92,1.02 -4.39,3 1.53,0.9 4.46,-0.27 4.5,-2.82 0,-0.04 -1.66,0.66 -2.27,1.66zm-4.68 -15.92c1.26,-0.38 2.79,0.32 2.77,0.28 -0.87,-2.67 -3.4,-2.08 -5.11,-1.07 0.4,1.7 3.23,2.98 5.06,1.27 0.03,-0.02 -1.6,-0.73 -2.72,-0.48zm16 -15.41c-0.83,1.3 -0.53,3.26 -0.57,3.23 -2.74,-1.84 -1.27,-4.5 0.43,-6.12 1.79,1 2.33,4.6 -0.18,6.13 -0.04,0.02 -0.32,-2.04 0.32,-3.24zm12.39 -6.66c-1.1,0.95 -1.37,2.79 -1.4,2.76 -1.97,-2.41 0.09,-4.41 2.07,-5.41 1.33,1.39 0.84,4.79 -1.85,5.48 -0.04,0.01 0.28,-1.93 1.18,-2.83zm12.42 1.64c0.74,1.11 0.5,2.82 0.54,2.8 2.36,-1.64 1.04,-3.94 -0.45,-5.33 -1.54,0.9 -1.97,4.04 0.24,5.34 0.03,0.02 0.24,-1.79 -0.33,-2.81zm3.06 3.33c-0.81,0.96 -2.39,1.19 -2.36,1.22 2.08,1.68 3.38,-0.53 4.23,-2.23 -1.72,-0.22 -3.71,-0.27 -4.29,2.04 -0.01,0.04 1.65,-0.25 2.42,-1.03zm16.15 4.8c-0.92,1.3 -0.72,3.32 -0.76,3.29 -2.72,-2.03 -1.06,-4.7 0.77,-6.28 1.78,1.12 2.16,4.86 -0.52,6.3 -0.04,0.02 -0.21,-2.12 0.51,-3.31zm13.91 11.56c-1,0.9 -2.74,0.92 -2.71,0.95 1.99,2.11 4.08,0.45 5.24,-1.25 -1.12,-1.4 -4.32,-1.36 -5.28,1.04 -0.02,0.04 1.81,-0.02 2.75,-0.74zm-4.28 -2.38c-0.78,1.29 -0.46,3.19 -0.5,3.16 -2.71,-1.75 -1.31,-4.37 0.32,-5.98 1.76,0.95 2.35,4.45 -0.08,5.99 -0.04,0.02 -0.34,-1.99 0.26,-3.17zm3.48 -1.66c-0.01,1.49 -1.27,2.92 -1.23,2.92 3.19,-0.05 3.39,-2.99 2.87,-5.19 -1.98,-0.13 -4.31,2.51 -3.07,5.07 0.02,0.04 1.33,-1.5 1.43,-2.8z"/></g></svg>