<svg width="415" height="613" viewBox="0 0 415 613" fill="none" xmlns="http://www.w3.org/2000/svg">
<path d="M414.121 592.121C415.293 590.95 415.293 589.05 414.121 587.879L395.029 568.787C393.858 567.615 391.958 567.615 390.787 568.787C389.615 569.958 389.615 571.858 390.787 573.029L407.757 590L390.787 606.971C389.615 608.142 389.615 610.042 390.787 611.213C391.958 612.385 393.858 612.385 395.029 611.213L414.121 592.121ZM306 0V321H312V0H306ZM156 471H127V477H156V471ZM6 350V326H0V350H6ZM200 326V431H206V326H200ZM362 593H412V587H362V593ZM200 431C200 520.47 272.53 593 362 593V587C275.844 587 206 517.156 206 431H200ZM103 229C156.572 229 200 272.428 200 326H206C206 269.115 159.885 223 103 223V229ZM6 326C6 272.428 49.4284 229 103 229V223C46.1147 223 0 269.115 0 326H6ZM127 471C60.1735 471 6 416.826 6 350H0C0 420.14 56.8598 477 127 477V471ZM306 321C306 403.843 238.843 471 156 471V477C242.156 477 312 407.156 312 321H306Z" fill="black"/>
</svg>
