<svg xmlns="http://www.w3.org/2000/svg" width="90" height="30" fill="none"><path fill="#1565C0" d="m25.837.517-6.718 20.655-1.27-5.81A26.605 26.605 0 0 0 8.071 2.961l6.439 26.535h7.75L33.113.559h-7.276V.517zm57.86 0h-7.751L64.06 29.44h7.234l1.55-4.19h9.302l1.033 4.19h6.2L83.698.517zm-9.302 19.622L78.585 9.3l2.067 10.838h-6.257zM53.727 8.77c0-1.536 1.034-3.1 4.65-3.1a9.86 9.86 0 0 1 5.168 2.067l1.55-6.187A20.432 20.432 0 0 0 58.377 0c-7.751 0-11.368 4.19-11.368 8.784 0 9.288 10.334 7.751 10.334 12.388 0 1.034-.516 2.584-4.65 2.584a17.751 17.751 0 0 1-7.234-1.55l-1.034 6.2a16.103 16.103 0 0 0 7.751 1.55c4.65.517 11.885-3.617 11.885-9.776 0-7.276-10.335-7.778-10.335-11.41zm-21.69 21.186h7.235l4.65-28.923h-7.75l-4.135 28.923z"/><path fill="#FF9800" d="M18.155 16.521 15.502 3.617a4.456 4.456 0 0 0-4.19-2.583H0s14.985 4.65 18.155 15.488z"/></svg>